
nColumns=19
nRows=24
DataType=double
version=3
OpenSimVersion=4.4-2022-10-11-798caa840
endheader
time	ground_force_calcn_r_vx	ground_force_calcn_r_vy	ground_force_calcn_r_vz	ground_force_calcn_r_px	ground_force_calcn_r_py	ground_force_calcn_r_pz	ground_force_calcn_r_mx	ground_force_calcn_r_my	ground_force_calcn_r_mz	ground_force_calcn_l_vx	ground_force_calcn_l_vy	ground_force_calcn_l_vz	ground_force_calcn_l_px	ground_force_calcn_l_py	ground_force_calcn_l_pz	ground_force_calcn_l_mx	ground_force_calcn_l_my	ground_force_calcn_l_mz
1.59	-271.29	371.209	-63.5473	-0.09767380000000001	0	-0.376814	-0.181065	0.247752	-0.0424127	-199.402	256.218	28.7769	-0.08013140000000001	0	-0.828687	0.0251294	-0.0322897	-0.00362659
1.6	-421.531	696.24	-113.591	-0.108786	0	-0.375879	-0.244382	0.403644	-0.06585439999999999	-465.523	728.172	60.5613	-0.0930204	0	-0.831686	-0.308904	0.483188	0.0401863
1.61	-141.684	759.266	-109.778	-0.15243	0	-0.38178	-0.481444	2.57999	-0.373027	-190.365	622.304	96.1812	-0.108747	0	-0.837309	0.566598	-1.85221	-0.286271
1.62	1.73306	1103.37	-108.057	-0.200578	0	-0.397316	0.000516831	0.329046	-0.0322245	-53.9895	664.963	143.696	-0.149427	0	-0.838241	0.282965	-3.48515	-0.753129
1.63	-16.4503	1100.08	-64.4194	-0.208201	0	-0.40484	0.0399566	-2.67203	0.156471	-1.781	961.402	150.131	-0.193102	0	-0.827298	-0.000250877	0.135426	0.0211479
1.64	-212.432	785.463	-78.2191	-0.180509	0	-0.40103	1.02199	-3.7788	0.376306	-43.4086	965.2430000000001	115.274	-0.198377	0	-0.821577	-0.176895	3.93348	0.469756
1.65	-302.582	596.855	-76.6318	-0.148492	0	-0.396799	1.58701	-3.13043	0.401925	-212.804	746.293	91.60599999999999	-0.167973	0	-0.8221889999999999	-1.41409	4.95913	0.608724
1.66	-245.378	540.466	-58.2531	-0.140448	0	-0.396904	1.6468	-3.62721	0.390952	-248.937	597.463	73.4491	-0.136848	0	-0.8234900000000001	-1.94017	4.6565	0.572447
1.67	-180.613	568.548	-70.17959999999999	-0.143928	0	-0.39702	1.14417	-3.60172	0.444584	-190.881	556.465	71.5796	-0.126075	0	-0.823413	-1.72202	5.02009	0.645748
1.68	-165.479	623.407	-87.223	-0.14571	0	-0.397222	0.934261	-3.51962	0.492442	-166.608	590.321	85.1999	-0.125006	0	-0.823238	-1.43132	5.07142	0.731949
1.69	-149.761	694.649	-90.6664	-0.151093	0	-0.399368	0.944625	-4.38154	0.5718839999999999	-173.622	630.832	96.8476	-0.123192	0	-0.823388	-1.43003	5.19584	0.7976839999999999
1.7	-103.466	774.069	-87.9302	-0.160341	0	-0.402447	0.725208	-5.42554	0.616313	-170.217	651.87	106.344	-0.121495	0	-0.823792	-1.38418	5.30093	0.864778
1.71	-71.07980000000001	807.33	-93.8943	-0.164041	0	-0.403207	0.490719	-5.57362	0.6482250000000001	-151.741	674.144	114.37	-0.12236	0	-0.823833	-1.21311	5.38952	0.914348
1.72	-76.0318	789.6609999999999	-103.97	-0.160284	0	-0.401909	0.505194	-5.24691	0.690833	-128.205	714.152	123.24	-0.125941	0	-0.823369	-0.97304	5.42021	0.935358
1.73	-92.2795	760.261	-106.738	-0.15341	0	-0.400248	0.617316	-5.08587	0.714036	-102.231	756.486	134.168	-0.129671	0	-0.822829	-0.7016289999999999	5.19188	0.920816
1.74	-99.6876	732.9059999999999	-107.983	-0.146379	0	-0.398596	0.641306	-4.71489	0.694668	-79.7334	779.139	139.984	-0.131189	0	-0.822232	-0.515089	5.03334	0.904317
1.75	-98.0924	710.591	-110.204	-0.140404	0	-0.397367	0.559429	-4.05256	0.628504	-72.7761	777.176	137.086	-0.129368	0	-0.821705	-0.487355	5.20446	0.918013
1.76	-91.7032	701.071	-110.812	-0.136672	0	-0.397052	0.467455	-3.57369	0.56486	-80.2895	758.2910000000001	131.571	-0.124809	0	-0.821465	-0.563833	5.3251	0.923956
1.77	-82.5793	710.295	-110.304	-0.135945	0	-0.397691	0.417702	-3.59281	0.557941	-88.89060000000001	733.599	128.238	-0.119427	0	-0.8215519999999999	-0.605032	4.99323	0.872849
1.78	-70.0866	728.697	-110.889	-0.137295	0	-0.398821	0.371287	-3.86031	0.58744	-91.8586	709.67	126.63	-0.114743	0	-0.821659	-0.572538	4.42324	0.789264
1.79	-57.4404	739.528	-113.322	-0.138859	0	-0.399855	0.319611	-4.11489	0.630547	-89.56610000000001	692.204	124.838	-0.111596	0	-0.8216560000000001	-0.530733	4.10172	0.739743
1.8	-48.6678	737.147	-115.892	-0.139605	0	-0.400662	0.291748	-4.41896	0.694735	-81.6865	683.453	123.478	-0.110332	0	-0.821484	-0.481093	4.0252	0.727228
1.81	-45.6995	725.37	-117.433	-0.139633	0	-0.401254	0.307695	-4.88392	0.790679	-70.1429	680.501	124.424	-0.110382	0	-0.8214	-0.400068	3.88131	0.709668
1.82	-46.7914	711.398	-117.688	-0.139749	0	-0.402013	0.360292	-5.47773	0.906191	-59.2899	677.4640000000001	127.589	-0.11069	0	-0.821501	-0.3099	3.54101	0.666891
